# xmcd
#
# Track frame offsets: 
#        150
#        19790
#        41340
#        60031
#        83510
#        106980
#        129152
#        147503
#        171318
#        188010
#        208633
#        225423
#        247520
#
# Disc length: 3580 seconds
#
# Revision: 3
# Processed by: cddbd v1.5.2PL0 Copyright (c) Steve Scherf et al.
# Submitted via: ExactAudioCopy v1.3
#
DISCID=920dfa0d
DTITLE=坂本冬美 - Love Songs
DYEAR=2009
DGENRE=JPop
TTITLE0=また君に恋してる
TTITLE1=恋しくて
TTITLE2=あの日にかえりたい
TTITLE3=会いたい
TTITLE4=言葉にできない
TTITLE5=恋
TTITLE6=夏をあきらめて
TTITLE7=シルエット・ロマンス
TTITLE8=片想い
TTITLE9=なごり雪
TTITLE10=時の過ぎゆくままに
TTITLE11=大阪で生まれた女
TTITLE12=また君に恋してる duet with ビリー・バンバン (Bonus track)
EXTD=YEAR: 2009
EXTT0=
EXTT1=
EXTT2=
EXTT3=
EXTT4=
EXTT5=
EXTT6=
EXTT7=
EXTT8=
EXTT9=
EXTT10=
EXTT11=
EXTT12=
PLAYORDER=
